<mxfile host="app.diagrams.net" modified="2022-10-05T22:30:41.708Z" agent="5.0 (Windows)" etag="eBIsgzv9pHEVLttI9p-Z" version="20.4.0" type="github">
  <diagram id="lvOmDgzRvjtnipGTjZTB" name="Page-1">
    <mxGraphModel dx="1038" dy="564" grid="1" gridSize="10" guides="1" tooltips="1" connect="1" arrows="1" fold="1" page="1" pageScale="1" pageWidth="850" pageHeight="1100" math="0" shadow="0">
      <root>
        <mxCell id="0" />
        <mxCell id="1" parent="0" />
        <mxCell id="_REt8d7B9zjdkL0efPJs-1" value="Appointment Schedular" style="shape=umlActor;verticalLabelPosition=bottom;verticalAlign=top;outlineConnect=0;fontFamily=Times New Roman;html=1;fontSize=15;horizontal=1;" vertex="1" parent="1">
          <mxGeometry x="120" y="250" width="30" height="60" as="geometry" />
        </mxCell>
        <mxCell id="_REt8d7B9zjdkL0efPJs-2" value="" style="swimlane;startSize=0;" vertex="1" parent="1">
          <mxGeometry x="200" y="50" width="410" height="430" as="geometry">
            <mxRectangle x="170" y="60" width="50" height="40" as="alternateBounds" />
          </mxGeometry>
        </mxCell>
        <mxCell id="_REt8d7B9zjdkL0efPJs-3" value="&lt;div&gt;Register&lt;/div&gt;" style="ellipse;whiteSpace=wrap;html=1;fontFamily=Times New Roman;fontSize=16;verticalAlign=middle;spacing=0;" vertex="1" parent="_REt8d7B9zjdkL0efPJs-2">
          <mxGeometry x="5" y="10" width="95" height="30" as="geometry" />
        </mxCell>
        <mxCell id="_REt8d7B9zjdkL0efPJs-4" value="&lt;div&gt;Search Profile&lt;/div&gt;" style="ellipse;whiteSpace=wrap;html=1;fontFamily=Times New Roman;fontSize=16;" vertex="1" parent="_REt8d7B9zjdkL0efPJs-2">
          <mxGeometry x="290" width="120" height="50" as="geometry" />
        </mxCell>
        <mxCell id="_REt8d7B9zjdkL0efPJs-5" value="View/Choose Appointment Slots" style="ellipse;whiteSpace=wrap;html=1;fontFamily=Times New Roman;fontSize=16;verticalAlign=top;spacing=0;" vertex="1" parent="_REt8d7B9zjdkL0efPJs-2">
          <mxGeometry x="120" y="260" width="160" height="50" as="geometry" />
        </mxCell>
        <mxCell id="_REt8d7B9zjdkL0efPJs-6" value="&lt;div&gt;View Profile&lt;/div&gt;" style="ellipse;whiteSpace=wrap;html=1;fontFamily=Times New Roman;fontSize=16;verticalAlign=middle;" vertex="1" parent="_REt8d7B9zjdkL0efPJs-2">
          <mxGeometry x="20" y="100" width="100" height="40" as="geometry" />
        </mxCell>
        <mxCell id="_REt8d7B9zjdkL0efPJs-7" value="Cancel Appointment Slots" style="ellipse;whiteSpace=wrap;html=1;fontFamily=Times New Roman;fontSize=16;verticalAlign=bottom;" vertex="1" parent="_REt8d7B9zjdkL0efPJs-2">
          <mxGeometry x="250" y="360" width="150" height="50" as="geometry" />
        </mxCell>
        <mxCell id="_REt8d7B9zjdkL0efPJs-8" value="Request Appointment" style="ellipse;whiteSpace=wrap;html=1;fontFamily=Times New Roman;fontSize=16;verticalAlign=top;spacing=0;" vertex="1" parent="_REt8d7B9zjdkL0efPJs-2">
          <mxGeometry x="20" y="370" width="120" height="50" as="geometry" />
        </mxCell>
        <mxCell id="_REt8d7B9zjdkL0efPJs-9" value="Request Rescheduling Appointment" style="ellipse;whiteSpace=wrap;html=1;fontFamily=Times New Roman;fontSize=16;verticalAlign=bottom;" vertex="1" parent="_REt8d7B9zjdkL0efPJs-2">
          <mxGeometry x="80" y="170" width="180" height="50" as="geometry" />
        </mxCell>
        <mxCell id="_REt8d7B9zjdkL0efPJs-10" value="Request Appointment Cancellation" style="ellipse;whiteSpace=wrap;html=1;fontFamily=Times New Roman;fontSize=16;" vertex="1" parent="_REt8d7B9zjdkL0efPJs-2">
          <mxGeometry x="80" y="320" width="185" height="50" as="geometry" />
        </mxCell>
        <mxCell id="_REt8d7B9zjdkL0efPJs-11" value="Enter Appointment Slots" style="ellipse;whiteSpace=wrap;html=1;fontFamily=Times New Roman;fontSize=16;verticalAlign=middle;" vertex="1" parent="_REt8d7B9zjdkL0efPJs-2">
          <mxGeometry x="225" y="140" width="180" height="50" as="geometry" />
        </mxCell>
        <mxCell id="_REt8d7B9zjdkL0efPJs-12" value="Login" style="ellipse;whiteSpace=wrap;html=1;fontFamily=Times New Roman;fontSize=16;verticalAlign=middle;spacing=0;" vertex="1" parent="_REt8d7B9zjdkL0efPJs-2">
          <mxGeometry x="20" y="60" width="80" height="30" as="geometry" />
        </mxCell>
        <mxCell id="_REt8d7B9zjdkL0efPJs-13" value="" style="endArrow=none;html=1;rounded=0;fontFamily=Times New Roman;fontSize=16;exitX=1;exitY=0.3333333333333333;exitDx=0;exitDy=0;exitPerimeter=0;entryX=0.098;entryY=0.828;entryDx=0;entryDy=0;entryPerimeter=0;" edge="1" parent="1" source="_REt8d7B9zjdkL0efPJs-1" target="_REt8d7B9zjdkL0efPJs-3">
          <mxGeometry width="50" height="50" relative="1" as="geometry">
            <mxPoint x="150" y="290" as="sourcePoint" />
            <mxPoint x="268.0499922096981" y="148.26700825772002" as="targetPoint" />
          </mxGeometry>
        </mxCell>
        <mxCell id="_REt8d7B9zjdkL0efPJs-14" value="&lt;div&gt;Appointment Receiver&lt;/div&gt;&lt;div&gt;&lt;br&gt;&lt;/div&gt;" style="shape=umlActor;verticalLabelPosition=bottom;verticalAlign=top;html=1;fontFamily=Times New Roman;fontSize=16;" vertex="1" parent="1">
          <mxGeometry x="640" y="90" width="30" height="60" as="geometry" />
        </mxCell>
        <mxCell id="_REt8d7B9zjdkL0efPJs-15" value="" style="endArrow=none;html=1;rounded=0;fontFamily=Times New Roman;fontSize=15;fontColor=#FF3333;exitX=1;exitY=0.5;exitDx=0;exitDy=0;entryX=0;entryY=0.3333333333333333;entryDx=0;entryDy=0;entryPerimeter=0;" edge="1" parent="1" source="_REt8d7B9zjdkL0efPJs-3" target="_REt8d7B9zjdkL0efPJs-14">
          <mxGeometry width="50" height="50" relative="1" as="geometry">
            <mxPoint x="470" y="120" as="sourcePoint" />
            <mxPoint x="620" y="290" as="targetPoint" />
          </mxGeometry>
        </mxCell>
        <mxCell id="_REt8d7B9zjdkL0efPJs-16" value="" style="endArrow=none;html=1;rounded=0;fontFamily=Times New Roman;fontSize=15;fontColor=#FF3333;entryX=1;entryY=0.3333333333333333;entryDx=0;entryDy=0;entryPerimeter=0;exitX=0.5;exitY=0;exitDx=0;exitDy=0;" edge="1" parent="1" source="_REt8d7B9zjdkL0efPJs-8" target="_REt8d7B9zjdkL0efPJs-1">
          <mxGeometry width="50" height="50" relative="1" as="geometry">
            <mxPoint x="290" y="330" as="sourcePoint" />
            <mxPoint x="340" y="280" as="targetPoint" />
          </mxGeometry>
        </mxCell>
        <mxCell id="_REt8d7B9zjdkL0efPJs-17" value="" style="endArrow=none;html=1;rounded=0;fontFamily=Times New Roman;fontSize=15;fontColor=#FF3333;exitX=0.5;exitY=0;exitDx=0;exitDy=0;entryX=0;entryY=0.3333333333333333;entryDx=0;entryDy=0;entryPerimeter=0;" edge="1" parent="1" source="_REt8d7B9zjdkL0efPJs-7" target="_REt8d7B9zjdkL0efPJs-14">
          <mxGeometry width="50" height="50" relative="1" as="geometry">
            <mxPoint x="500" y="420" as="sourcePoint" />
            <mxPoint x="660" y="110" as="targetPoint" />
          </mxGeometry>
        </mxCell>
        <mxCell id="_REt8d7B9zjdkL0efPJs-18" value="" style="endArrow=none;html=1;rounded=0;fontFamily=Times New Roman;fontSize=15;fontColor=#FF3333;exitX=1;exitY=0.3333333333333333;exitDx=0;exitDy=0;exitPerimeter=0;entryX=0.5;entryY=1;entryDx=0;entryDy=0;" edge="1" parent="1" source="_REt8d7B9zjdkL0efPJs-1" target="_REt8d7B9zjdkL0efPJs-4">
          <mxGeometry width="50" height="50" relative="1" as="geometry">
            <mxPoint x="310" y="180" as="sourcePoint" />
            <mxPoint x="360" y="130" as="targetPoint" />
          </mxGeometry>
        </mxCell>
        <mxCell id="_REt8d7B9zjdkL0efPJs-19" value="" style="endArrow=none;html=1;rounded=0;fontFamily=Times New Roman;fontSize=15;fontColor=#FF3333;entryX=0;entryY=0.3333333333333333;entryDx=0;entryDy=0;entryPerimeter=0;exitX=0.5;exitY=1;exitDx=0;exitDy=0;" edge="1" parent="1" source="_REt8d7B9zjdkL0efPJs-4" target="_REt8d7B9zjdkL0efPJs-14">
          <mxGeometry width="50" height="50" relative="1" as="geometry">
            <mxPoint x="490" y="150" as="sourcePoint" />
            <mxPoint x="540" y="100" as="targetPoint" />
          </mxGeometry>
        </mxCell>
        <mxCell id="_REt8d7B9zjdkL0efPJs-20" value="" style="endArrow=none;html=1;rounded=0;fontFamily=Times New Roman;fontSize=15;fontColor=#FF3333;entryX=0;entryY=0.5;entryDx=0;entryDy=0;exitX=1;exitY=0.3333333333333333;exitDx=0;exitDy=0;exitPerimeter=0;" edge="1" parent="1" source="_REt8d7B9zjdkL0efPJs-1" target="_REt8d7B9zjdkL0efPJs-6">
          <mxGeometry width="50" height="50" relative="1" as="geometry">
            <mxPoint x="140" y="300" as="sourcePoint" />
            <mxPoint x="370" y="170" as="targetPoint" />
          </mxGeometry>
        </mxCell>
        <mxCell id="_REt8d7B9zjdkL0efPJs-21" value="" style="endArrow=none;html=1;rounded=0;fontFamily=Times New Roman;fontSize=15;fontColor=#FF3333;entryX=0;entryY=0.3333333333333333;entryDx=0;entryDy=0;entryPerimeter=0;exitX=1;exitY=0.5;exitDx=0;exitDy=0;" edge="1" parent="1" source="_REt8d7B9zjdkL0efPJs-6" target="_REt8d7B9zjdkL0efPJs-14">
          <mxGeometry width="50" height="50" relative="1" as="geometry">
            <mxPoint x="500" y="190" as="sourcePoint" />
            <mxPoint x="550" y="140" as="targetPoint" />
          </mxGeometry>
        </mxCell>
        <mxCell id="_REt8d7B9zjdkL0efPJs-22" value="" style="endArrow=none;html=1;rounded=0;fontFamily=Times New Roman;fontSize=15;fontColor=#FF3333;exitX=1;exitY=0.3333333333333333;exitDx=0;exitDy=0;exitPerimeter=0;entryX=0.5;entryY=0;entryDx=0;entryDy=0;" edge="1" parent="1" source="_REt8d7B9zjdkL0efPJs-1" target="_REt8d7B9zjdkL0efPJs-5">
          <mxGeometry width="50" height="50" relative="1" as="geometry">
            <mxPoint x="380" y="280" as="sourcePoint" />
            <mxPoint x="430" y="230" as="targetPoint" />
          </mxGeometry>
        </mxCell>
        <mxCell id="_REt8d7B9zjdkL0efPJs-23" value="" style="endArrow=none;html=1;rounded=0;fontFamily=Times New Roman;fontSize=15;fontColor=#FF3333;exitX=1;exitY=0.3333333333333333;exitDx=0;exitDy=0;exitPerimeter=0;entryX=0;entryY=0.5;entryDx=0;entryDy=0;" edge="1" parent="1" source="_REt8d7B9zjdkL0efPJs-1" target="_REt8d7B9zjdkL0efPJs-9">
          <mxGeometry width="50" height="50" relative="1" as="geometry">
            <mxPoint x="380" y="280" as="sourcePoint" />
            <mxPoint x="430" y="230" as="targetPoint" />
          </mxGeometry>
        </mxCell>
        <mxCell id="_REt8d7B9zjdkL0efPJs-24" value="" style="endArrow=none;html=1;rounded=0;fontFamily=Times New Roman;fontSize=15;fontColor=#FF3333;exitX=0.531;exitY=-0.004;exitDx=0;exitDy=0;exitPerimeter=0;entryX=0;entryY=0.3333333333333333;entryDx=0;entryDy=0;entryPerimeter=0;" edge="1" parent="1" source="_REt8d7B9zjdkL0efPJs-9" target="_REt8d7B9zjdkL0efPJs-14">
          <mxGeometry width="50" height="50" relative="1" as="geometry">
            <mxPoint x="520" y="180" as="sourcePoint" />
            <mxPoint x="800" y="160" as="targetPoint" />
          </mxGeometry>
        </mxCell>
        <mxCell id="_REt8d7B9zjdkL0efPJs-25" value="" style="endArrow=none;html=1;rounded=0;fontFamily=Times New Roman;fontSize=15;fontColor=#FF3333;exitX=0.5;exitY=0;exitDx=0;exitDy=0;entryX=1;entryY=0.3333333333333333;entryDx=0;entryDy=0;entryPerimeter=0;" edge="1" parent="1" source="_REt8d7B9zjdkL0efPJs-10" target="_REt8d7B9zjdkL0efPJs-1">
          <mxGeometry width="50" height="50" relative="1" as="geometry">
            <mxPoint x="380" y="280" as="sourcePoint" />
            <mxPoint x="430" y="230" as="targetPoint" />
          </mxGeometry>
        </mxCell>
        <mxCell id="_REt8d7B9zjdkL0efPJs-26" value="" style="endArrow=none;html=1;rounded=0;fontFamily=Times New Roman;fontSize=15;fontColor=#FF3333;entryX=0;entryY=0.3333333333333333;entryDx=0;entryDy=0;entryPerimeter=0;exitX=0.5;exitY=0;exitDx=0;exitDy=0;" edge="1" parent="1" source="_REt8d7B9zjdkL0efPJs-11" target="_REt8d7B9zjdkL0efPJs-14">
          <mxGeometry width="50" height="50" relative="1" as="geometry">
            <mxPoint x="380" y="280" as="sourcePoint" />
            <mxPoint x="430" y="230" as="targetPoint" />
          </mxGeometry>
        </mxCell>
        <mxCell id="_REt8d7B9zjdkL0efPJs-27" value="" style="endArrow=none;html=1;rounded=0;fontFamily=Times New Roman;fontSize=15;fontColor=#FF3333;exitX=1;exitY=0.3333333333333333;exitDx=0;exitDy=0;exitPerimeter=0;entryX=0.025;entryY=0.7;entryDx=0;entryDy=0;entryPerimeter=0;" edge="1" parent="1" source="_REt8d7B9zjdkL0efPJs-1" target="_REt8d7B9zjdkL0efPJs-12">
          <mxGeometry width="50" height="50" relative="1" as="geometry">
            <mxPoint x="380" y="280" as="sourcePoint" />
            <mxPoint x="430" y="230" as="targetPoint" />
          </mxGeometry>
        </mxCell>
        <mxCell id="_REt8d7B9zjdkL0efPJs-28" value="" style="endArrow=none;html=1;rounded=0;fontFamily=Times New Roman;fontSize=15;fontColor=#FF3333;exitX=1;exitY=0.5;exitDx=0;exitDy=0;entryX=0;entryY=0.3333333333333333;entryDx=0;entryDy=0;entryPerimeter=0;" edge="1" parent="1" source="_REt8d7B9zjdkL0efPJs-12" target="_REt8d7B9zjdkL0efPJs-14">
          <mxGeometry width="50" height="50" relative="1" as="geometry">
            <mxPoint x="380" y="280" as="sourcePoint" />
            <mxPoint x="430" y="230" as="targetPoint" />
          </mxGeometry>
        </mxCell>
      </root>
    </mxGraphModel>
  </diagram>
</mxfile>
